<svg xmlns="http://www.w3.org/2000/svg" width="900" height="650" viewBox="0 0 900 650">
  <defs>
    <linearGradient id="bg" x1="0" y1="0" x2="1" y2="1"><stop stop-color="#4338ca"/><stop offset="1" stop-color="#a855f7"/></linearGradient>
    <linearGradient id="shine" x1="0" y1="0" x2="1" y2="1"><stop stop-color="#ffffff" stop-opacity=".9"/><stop offset="1" stop-color="#ffffff" stop-opacity=".35"/></linearGradient>
    <filter id="shadow"><feDropShadow dx="0" dy="22" stdDeviation="22" flood-color="#020617" flood-opacity=".24"/></filter>
  </defs>
  <rect width="900" height="650" rx="0" fill="#f8fafc"/>
  <rect x="55" y="55" width="790" height="540" rx="46" fill="url(#bg)"/>
  <circle cx="740" cy="130" r="120" fill="#fff" opacity=".14"/>
  <circle cx="150" cy="520" r="135" fill="#fff" opacity=".12"/>
  <g filter="url(#shadow)"><rect x="190" y="190" width="520" height="250" rx="34" fill="#111827"/><g fill="#f8fafc" opacity=".95"><rect x="220" y="220" width="42" height="34" rx="8"/><rect x="278" y="220" width="42" height="34" rx="8"/><rect x="336" y="220" width="42" height="34" rx="8"/><rect x="394" y="220" width="42" height="34" rx="8"/><rect x="452" y="220" width="42" height="34" rx="8"/><rect x="510" y="220" width="42" height="34" rx="8"/><rect x="568" y="220" width="42" height="34" rx="8"/><rect x="626" y="220" width="42" height="34" rx="8"/><rect x="220" y="275" width="42" height="34" rx="8"/><rect x="278" y="275" width="42" height="34" rx="8"/><rect x="336" y="275" width="42" height="34" rx="8"/><rect x="394" y="275" width="42" height="34" rx="8"/><rect x="452" y="275" width="42" height="34" rx="8"/><rect x="510" y="275" width="42" height="34" rx="8"/><rect x="568" y="275" width="42" height="34" rx="8"/><rect x="626" y="275" width="42" height="34" rx="8"/><rect x="220" y="330" width="42" height="34" rx="8"/><rect x="278" y="330" width="42" height="34" rx="8"/><rect x="336" y="330" width="42" height="34" rx="8"/><rect x="394" y="330" width="42" height="34" rx="8"/><rect x="452" y="330" width="42" height="34" rx="8"/><rect x="510" y="330" width="42" height="34" rx="8"/><rect x="568" y="330" width="42" height="34" rx="8"/><rect x="626" y="330" width="42" height="34" rx="8"/><rect x="220" y="385" width="42" height="34" rx="8"/><rect x="278" y="385" width="42" height="34" rx="8"/><rect x="336" y="385" width="42" height="34" rx="8"/><rect x="394" y="385" width="42" height="34" rx="8"/><rect x="452" y="385" width="42" height="34" rx="8"/><rect x="510" y="385" width="42" height="34" rx="8"/><rect x="568" y="385" width="42" height="34" rx="8"/><rect x="626" y="385" width="42" height="34" rx="8"/></g><rect x="330" y="395" width="240" height="24" rx="12" fill="#a78bfa"/></g>
  <text x="450" y="540" text-anchor="middle" font-family="Arial, Helvetica, sans-serif" font-size="40" font-weight="900" fill="white">TypeFlow Keyboard</text>
  <text x="450" y="585" text-anchor="middle" font-family="Arial, Helvetica, sans-serif" font-size="22" font-weight="700" fill="white" opacity=".92">Keyboard</text>
</svg>